<svg width="151" height="151" viewBox="0 0 151 151" fill="none" xmlns="http://www.w3.org/2000/svg">
<path fill-rule="evenodd" clip-rule="evenodd" d="M107.426 106.179C108.439 106.179 109.197 106.127 109.704 106.022C110.206 105.92 110.576 105.696 110.81 105.351C111.043 105.009 111.158 104.474 111.158 103.754V100.421C111.158 99.8656 111.092 99.4318 110.96 99.1163C110.832 98.7974 110.62 98.5608 110.338 98.4031C110.052 98.2453 109.686 98.1401 109.237 98.0908C108.787 98.0415 108.183 98.0152 107.426 98.0152C106.425 98.0152 105.676 98.0679 105.178 98.1697C104.685 98.2716 104.323 98.4918 104.09 98.8303C103.856 99.1655 103.728 99.698 103.702 100.421V103.754C103.728 104.48 103.856 105.016 104.085 105.358C104.314 105.696 104.68 105.92 105.178 106.022C105.676 106.127 106.425 106.179 107.426 106.179ZM107.426 109.611C105.958 109.611 104.685 109.535 103.601 109.384C102.517 109.233 101.574 108.963 100.772 108.572C99.9739 108.184 99.3526 107.629 98.9119 106.912C98.4757 106.196 98.2554 105.285 98.2554 104.188V100.007C98.2554 98.9092 98.4757 97.9988 98.9164 97.2758C99.357 96.556 99.9784 96.0038 100.776 95.616C101.574 95.2282 102.517 94.9619 103.601 94.8108C104.685 94.6596 105.958 94.584 107.426 94.584C108.897 94.584 110.175 94.6596 111.264 94.8108C112.352 94.9619 113.291 95.2282 114.093 95.616C114.89 96.0038 115.507 96.556 115.948 97.2758C116.384 97.9988 116.605 98.9092 116.605 100.007V104.188C116.605 105.285 116.384 106.196 115.948 106.912C115.512 107.629 114.895 108.184 114.093 108.572C113.295 108.963 112.352 109.233 111.264 109.384C110.175 109.535 108.897 109.611 107.426 109.611ZM92.042 98.1335V109.492H86.7541V98.1335H81.6777V94.7023H97.3829V98.1335H92.042ZM71.5997 106.179C72.6132 106.179 73.3712 106.127 73.8779 106.022C74.3803 105.92 74.7504 105.696 74.984 105.351C75.2175 105.009 75.3321 104.474 75.3321 103.754V100.421C75.3321 99.8656 75.266 99.4318 75.1338 99.1163C75.006 98.7974 74.7945 98.5608 74.5125 98.4031C74.226 98.2453 73.8603 98.1401 73.4108 98.0908C72.9613 98.0415 72.3576 98.0152 71.5997 98.0152C70.5994 98.0152 69.8502 98.0679 69.3523 98.1697C68.8587 98.2716 68.4974 98.4918 68.2639 98.8303C68.0304 99.1655 67.9025 99.698 67.8761 100.421V103.754C67.9025 104.48 68.0304 105.016 68.2595 105.358C68.4886 105.696 68.8543 105.92 69.3523 106.022C69.8502 106.127 70.5994 106.179 71.5997 106.179ZM71.5997 109.611C70.1323 109.611 68.8587 109.535 67.7747 109.384C66.6907 109.233 65.7477 108.963 64.9457 108.572C64.1481 108.184 63.5267 107.629 63.0861 106.912C62.6498 106.196 62.4295 105.285 62.4295 104.188V100.007C62.4295 98.9092 62.6498 97.9988 63.0905 97.2758C63.5312 96.556 64.1525 96.0038 64.9501 95.616C65.7477 95.2282 66.6907 94.9619 67.7747 94.8108C68.8587 94.6596 70.1323 94.584 71.5997 94.584C73.0715 94.584 74.3494 94.6596 75.4379 94.8108C76.5263 94.9619 77.4649 95.2282 78.2669 95.616C79.0645 96.0038 79.6815 96.556 80.1221 97.2758C80.5584 97.9988 80.7787 98.9092 80.7787 100.007V104.188C80.7787 105.285 80.5584 106.196 80.1221 106.912C79.6858 107.629 79.0689 108.184 78.2669 108.572C77.4693 108.963 76.5263 109.233 75.4379 109.384C74.3494 109.535 73.0715 109.611 71.5997 109.611ZM40.1937 98.1533L40.7225 109.492H35.4345V94.7023H43.8115L47.5968 103.99H47.7819L51.3777 94.7023H59.9706V109.492H54.6827L55.2115 98.1533H55.0264L50.0029 109.492H45.4287L40.3523 98.1533H40.1937ZM74.5955 43.0638H35.6612V87.6412H45.0724L45.0385 70.2831H72.1085V61.5537H45.0385V52.5604H74.5955V43.0638ZM109.145 57.7858V52.5604H87.7856L87.7919 79.2294H109.145V71.8194L98.0792 71.8404V62.9875H117.376V83.8484L113.344 87.6412H82.7114L78.6231 83.7347L78.6215 46.9685L82.7159 43.0642L113.287 43.0638L117.376 46.9643V57.7683L109.145 57.7858L109.145 57.7858ZM80.6784 135.799C108.869 132.177 136.813 109.443 136.513 76.2922C136.534 75.7531 136.889 75.7855 136.903 76.3366C137.16 102.271 116.571 133.863 80.6784 135.799ZM98.2412 134.497C98.6204 134.269 98.5169 134.089 98.09 134.242C91.1422 136.881 83.499 137.546 75.6117 137.546C42.4344 137.546 15.5388 110.352 15.5388 76.8067C15.5388 43.2615 42.4344 16.0677 75.6117 16.0677C78.5065 16.0677 81.3919 16.2428 84.2436 16.5914C85.8891 16.7925 87.9282 16.3936 89.5465 16.7099C92.829 17.3515 96.0329 18.0425 99.0979 19.2316C101.184 20.0408 103.314 20.6691 105.282 21.7319C110.487 24.5438 115.158 28.4891 119.398 32.5504C119.83 32.9649 120.66 33.2132 121.077 33.6456C125.614 38.347 129.3 44.0363 131.945 50.2313C133.67 54.2705 134.837 58.5878 135.909 62.7695C136.055 63.3418 135.769 64.4434 135.899 65.0213C136.695 68.5622 136.603 75.9687 137.306 75.9747C137.305 75.9341 137.305 75.8935 137.304 75.853C137.195 67.1296 136.902 59.6593 133.619 52.131C130.752 45.5553 123.628 31.86 110.081 22.59C104.108 18.5022 93.0176 13.7122 87.5877 13.3496C86.4086 13.2709 86.6275 13.4486 87.5779 13.657C94.3459 15.1405 101.582 18.0189 109.394 23.0149C106.658 21.4192 103.658 20.0473 100.491 18.9063C100.104 18.7668 99.6845 18.9871 99.2927 18.8546C98.7691 18.6774 98.275 18.1367 97.7402 17.9853C97.4492 17.9029 97.117 18.0845 96.8249 18.004C93.0941 16.9756 89.3157 15.8449 85.4343 15.3507C82.3848 14.9624 79.3188 14.7741 76.3058 14.7741C68.6397 14.7741 61.352 16.2548 54.567 18.763C54.3219 18.8536 53.9561 18.5949 53.7125 18.6884C30.3735 27.6489 13.8907 50.3722 13.8907 76.6862C13.8907 99.0473 25.5021 119.07 43.4137 129.951C48.5343 133.062 54.255 135.27 60.2878 136.768C60.5742 136.84 61.086 136.633 61.3702 136.712C66.248 138.061 71.1274 138.603 76.3058 138.598C84.0167 138.592 92.0769 137.263 98.2413 134.497H98.2412ZM38.4967 23.3149C38.9485 21.7878 45.95 18.4823 51.2593 16.132C52.1816 15.7238 52.8522 15.1568 53.6327 14.872C54.0069 14.7355 54.5985 15.0821 54.9613 14.9143C57.4524 13.7617 59.6288 13.7975 61.9622 13.3136C63.3181 13.0325 64.5849 12.5166 65.9659 12.3387C66.6154 12.255 67.3084 12.4681 67.9639 12.4081C68.5891 12.3509 69.1766 12.0194 69.8074 11.9842C74.4984 11.7225 79.3484 12.0759 84.4014 13.1406C68.2511 11.1849 52.9495 14.5764 38.4967 23.3149ZM36.0982 23.4021C36.5844 23.4021 36.9786 23.7802 36.9786 24.2466C36.9786 24.713 36.5844 25.0911 36.0982 25.0911C35.6119 25.0911 35.2177 24.713 35.2177 24.2466C35.2177 23.7802 35.6119 23.4021 36.0982 23.4021ZM125.843 34.9256C126.346 34.9256 126.754 35.3335 126.754 35.8367C126.754 36.3399 126.346 36.7478 125.843 36.7478C125.34 36.7478 124.932 36.3399 124.932 35.8367C124.932 35.3335 125.34 34.9256 125.843 34.9256ZM124.862 40.7972C125.37 40.7972 125.782 41.2096 125.782 41.7184C125.782 42.2272 125.37 42.6397 124.862 42.6397C124.353 42.6397 123.941 42.2272 123.941 41.7184C123.941 41.2096 124.353 40.7972 124.862 40.7972ZM132.533 43.3078C132.885 43.3078 133.17 43.5934 133.17 43.9456C133.17 44.2979 132.885 44.5834 132.533 44.5834C132.18 44.5834 131.895 44.2979 131.895 43.9456C131.895 43.5934 132.18 43.3078 132.533 43.3078ZM102.112 134.761C102.475 134.761 102.769 135.045 102.769 135.395C102.769 135.745 102.475 136.029 102.112 136.029C101.748 136.029 101.454 135.745 101.454 135.395C101.454 135.045 101.748 134.761 102.112 134.761ZM26.6663 119.229C27.1693 119.229 27.5771 119.639 27.5771 120.146C27.5771 120.652 27.1693 121.062 26.6663 121.062C26.1632 121.062 25.7554 120.652 25.7554 120.146C25.7554 119.639 26.1632 119.229 26.6663 119.229ZM30.4309 121.47C30.8893 121.47 31.2608 121.843 31.2608 122.305C31.2608 122.766 30.8893 123.14 30.4309 123.14C29.9726 123.14 29.6011 122.766 29.6011 122.305C29.6011 121.843 29.9726 121.47 30.4309 121.47ZM24.2982 100.304C25.103 100.304 25.7555 100.94 25.7555 101.723C25.7555 102.507 25.103 103.142 24.2982 103.142C23.4934 103.142 22.8409 102.507 22.8409 101.723C22.8409 100.94 23.4934 100.304 24.2982 100.304ZM23.1243 113.316C14.5147 101.448 12.4232 90.0272 11.0534 79.9341C10.6572 77.0145 9.68105 74.2158 9.73137 71.4534C9.9459 59.675 14.1023 49.2879 21.1982 39.9717C21.4184 39.6826 21.8339 39.7639 22.0597 39.4768C22.1162 39.405 21.9806 38.9639 22.0374 38.8922C24.3805 35.9376 27.0207 33.0914 29.925 30.343C26.546 34.1413 23.6527 37.8517 21.2217 41.5166C21.1356 41.6464 20.9488 41.3107 20.8638 41.4404C20.072 42.6493 19.4317 44.3191 18.7397 45.5199C13.7843 54.1187 11.3647 62.5498 11.172 71.3733C11.1132 74.0642 10.8568 76.2754 11.2034 79.0552C12.4837 89.322 17.2589 100.474 23.1243 113.316ZM133.299 47.3492C135.243 49.906 136.393 53.311 137.453 56.3115C137.728 57.091 137.954 57.8267 138.201 58.6049C138.218 58.6592 138.379 58.6566 138.395 58.712C138.399 58.7264 138.403 58.7411 138.407 58.7556C138.522 59.1642 138.385 59.7742 138.511 60.1783C140.763 67.3853 140.628 74.944 140.756 81.051C140.773 81.8613 140.775 82.6638 140.762 83.4583C140.728 85.5268 140.003 87.6829 139.71 89.6367C137.384 105.099 125.51 123.68 104.012 134.072C123.886 122.846 136.072 108.158 139.258 89.9181C139.763 87.0244 139.43 83.913 139.514 80.8479C139.629 76.623 140.315 71.7534 139.628 67.2058C138.652 60.7479 136.179 54.2625 133.299 47.3492Z" fill="white" stroke="black" stroke-width="0.216" stroke-linecap="round" stroke-linejoin="round"/>
</svg>
